<svg id="svg-media" viewBox="0 0 33.618301 26.458292">
  <g transform="translate(-3683.6866,-1671.4726)">
    <path
      id="svg-media-path"
      class="svg-path"
      transform="matrix(2.1097939,0,0,2.1097939,-3873.5306,-1749.1217)"
      d="m 3586.7488,1621.2931 -1.3283,2.3009 h -3.4511 l 0.012,10.2398 h 7.9453 0.018 7.9471 l 0.012,-10.2398 h -3.4511 l -1.328,-2.3009 h -3.1797 -0.016 z m 0.7634,1.3224 h 2.416 0.016 2.4157 l 1.3283,2.3006 h 2.8904 l -0.01,7.5936 h -6.6249 -0.018 -6.6229 l -0.01,-7.5936 h 2.8905 z m 2.4239,2.8047 c -1.6014,0 -2.914,1.3127 -2.914,2.9139 0,1.6013 1.3126,2.914 2.914,2.914 1.6011,-10e-5 2.9139,-1.3127 2.9139,-2.914 0,-1.6011 -1.3128,-2.9139 -2.9139,-2.9139 z m 0,1.3221 c 0.8862,1e-4 1.5898,0.7056 1.5898,1.5918 0,0.8863 -0.7036,1.5898 -1.5898,1.5899 -0.8864,0 -1.5899,-0.7035 -1.5899,-1.5899 0,-0.8862 0.7035,-1.5918 1.5899,-1.5918 z" />
  </g>
</svg>